<svg width="68" height="29" viewBox="0 0 68 29" fill="none" xmlns="http://www.w3.org/2000/svg">
<path d="M25.4256 27.2881C24.7067 27.02 24.0495 26.5249 23.4539 25.7824C22.7967 24.813 22.4681 23.2661 22.4681 21.1416V0.268188C22.2011 0.721958 21.8931 1.09322 21.5439 1.34073C21.1948 1.58825 20.8046 1.85638 20.3938 2.08327L19.9831 2.31015C19.141 2.8258 18.7098 3.5477 18.7098 4.47587V9.50859H18.1758L16.1631 7.48725L14.1299 9.52921H13.5959V0.268188C13.37 0.680706 13.0414 1.05197 12.6306 1.38199C12.1583 1.75325 11.5216 2.12452 10.659 2.51641L9.7759 2.9083C8.95439 3.25894 8.11235 3.67146 7.29085 4.1046C6.46934 4.53775 5.72999 5.07402 5.1344 5.71342C4.41558 6.45596 3.98429 7.23974 3.81999 8.10603C3.75838 8.35354 3.73784 8.58042 3.73784 8.82793C3.73784 9.40546 3.88161 9.9211 4.16913 10.3749C4.43612 10.7874 4.76472 11.0968 5.19601 11.303C5.6273 11.5093 6.03805 11.6124 6.48988 11.6124C6.79795 11.6124 7.10601 11.5506 7.41407 11.4474C7.59891 11.3649 7.74268 11.2824 7.8659 11.1999C7.98913 11.1174 8.09181 10.9937 8.1945 10.8905C8.09181 10.8493 8.0302 10.7874 7.94805 10.7255C7.8659 10.6636 7.80429 10.5811 7.7016 10.4368C7.2087 9.79735 6.96225 9.05482 6.96225 8.25041C6.96225 7.98227 6.98278 7.73476 7.0444 7.446C7.2087 6.64159 7.5373 6.00219 8.0302 5.50716C8.5231 5.01214 9.13923 4.59963 9.89912 4.22836C9.89912 4.31086 9.87859 8.91044 9.87859 18.0477L9.89912 18.0271V18.3365C9.89912 18.8109 9.85805 19.244 9.79644 19.5946C9.73482 19.9453 9.54998 20.2959 9.283 20.5641C9.01601 20.8322 8.62579 21.0385 8.09181 21.2241C7.47569 21.4304 6.67472 21.5335 5.68892 21.5335L5.17548 21.5129C4.66204 21.4716 4.1486 21.3685 3.65569 21.1828C3.16279 20.9972 2.7315 20.7291 2.38236 20.3991C2.03322 20.069 1.86892 19.6978 1.86892 19.2646C1.86892 18.914 2.01268 18.5221 2.32075 18.1302L1.80731 18.6046C1.62247 18.8109 1.41709 18.9965 1.23226 19.1821C0.821504 19.6359 0.51344 20.069 0.308064 20.5434C0.102688 21.0178 0 21.4716 0 21.9047C0 22.5854 0.225914 23.1835 0.677741 23.6992C1.12957 24.2148 1.80731 24.5655 2.71096 24.7305C3.08064 24.7924 3.45032 24.813 3.81999 24.813C4.78526 24.813 5.64784 24.6892 6.42827 24.4211C11.193 22.8329 13.5959 19.8628 13.5959 15.5313V10.7461H14.1299L16.1631 12.7881L18.1758 10.7668H18.7098V20.7909C18.7098 21.7604 18.8741 22.8535 19.2232 24.0498C19.5723 25.2461 20.0652 26.2156 20.743 26.9168C21.2564 27.3912 21.852 27.7625 22.5092 28.0513C23.3718 28.4225 24.1728 28.5875 24.9121 28.5875C25.3639 28.5875 25.7542 28.5463 26.0828 28.4432C26.4114 28.34 26.6783 28.2369 26.8837 28.1338C27.0891 28.0306 27.2123 27.9275 27.2945 27.8244C27.3766 27.7212 27.3972 27.6387 27.4177 27.5562L27.4382 27.5356C27.1712 27.5356 26.8632 27.515 26.4935 27.4944C26.1238 27.4737 25.7542 27.4119 25.4256 27.2881Z" fill="#222222"/>
<path d="M47.0927 0.907539C46.7435 0.618777 46.3533 0.309388 45.9015 0C45.7577 0.433144 45.4702 0.825035 44.9773 1.17568C44.4844 1.52632 43.9504 1.85633 43.2932 2.18634C42.636 2.51636 41.9788 2.92888 41.3216 3.36202C40.6644 3.79516 40.0894 4.37269 39.5964 5.03272C39.1035 5.69275 38.7749 6.53841 38.6312 7.52845L38.6106 7.81721C38.015 7.81721 37.5838 8.08535 37.3373 8.601L37.0703 9.15789H38.549V16.9957C38.508 17.3257 38.4463 17.6351 38.3231 17.9239C38.1794 18.2745 37.974 18.5633 37.707 18.7902C37.44 19.0171 37.1114 19.1408 36.7417 19.1408C36.372 19.1408 36.0845 19.0789 35.8791 18.9552C35.6738 18.8314 35.5505 18.6252 35.4889 18.357C35.4273 18.0889 35.4068 17.7383 35.4068 17.3257V5.42461C34.996 6.2909 34.3388 7.03343 33.4352 7.6522C32.5315 8.27098 31.5457 8.80725 30.4983 9.30228C29.9027 9.59104 29.3276 9.90043 28.7937 10.1892C27.7463 10.7667 26.8221 11.4267 26.0622 12.1899C25.3023 12.9531 24.7683 13.9431 24.4808 15.1807C24.3986 15.5932 24.3575 16.0263 24.3575 16.4595C24.3575 17.1607 24.4808 17.862 24.7067 18.5427C24.9326 19.2233 25.3023 19.8215 25.7746 20.3371C26.2059 20.7703 26.6783 21.1209 27.1917 21.3272C27.7052 21.5334 28.2802 21.6572 28.8553 21.6572C29.6973 21.6572 30.3956 21.4303 30.909 20.9972C31.4225 20.564 31.8743 19.9865 32.1824 19.2646C32.3672 20.0071 32.7163 20.5846 33.1887 21.0178C33.6611 21.4509 34.3183 21.6572 35.1603 21.6572C36.2899 21.6572 37.2141 21.3478 37.8713 20.729C38.1177 20.5021 38.3231 20.2546 38.5285 19.9865V29C38.7955 28.5462 39.1035 28.175 39.4527 27.9275C39.8018 27.6799 40.192 27.4324 40.6028 27.2055L40.993 26.9787C41.835 26.4424 42.2663 25.7205 42.2663 24.8129V9.13727H42.6565C43.1905 9.13727 43.5807 8.88976 43.8683 8.37411L44.1353 7.79659H42.2869C42.3074 7.17781 42.3074 6.57966 42.3074 6.04339C42.3074 5.61024 42.3896 5.19772 42.5744 4.78521C42.7592 4.37269 43.0262 4.08393 43.4164 3.87767C43.6629 3.77454 43.8888 3.71266 44.1147 3.71266C44.3612 3.71266 44.5871 3.77454 44.813 3.87767C45.2032 4.08393 45.4702 4.37269 45.655 4.78521C45.8399 5.19772 45.922 5.61024 45.922 6.04339C46.723 6.04339 47.3597 5.8165 47.832 5.34211C48.3044 4.86771 48.5098 4.31081 48.5098 3.63016C48.5098 3.19701 48.3865 2.72262 48.1606 2.24822C47.9347 1.77383 47.5856 1.34068 47.0927 0.907539ZM31.6895 16.7688C31.6895 17.202 31.6073 17.6351 31.443 18.0477C31.2787 18.4602 30.9912 18.7696 30.5804 18.9758C30.3135 19.0996 30.0875 19.1615 29.8616 19.1615C29.4509 19.1615 29.1223 18.9964 28.8553 18.6871C28.3418 18.0683 28.0749 17.1607 28.0749 15.9644C28.0749 14.5206 28.3418 13.3656 28.8964 12.5405C29.3276 11.9011 30.0259 11.303 31.0117 10.7461L31.6689 10.3748V16.7688H31.6895Z" fill="#222222"/>
<path d="M66.6034 18.5839C66.2337 18.2539 65.7819 17.9652 65.2274 17.7383C64.447 17.4495 63.646 17.3051 62.7629 17.3051C62.3521 17.3051 61.9619 17.3464 61.5922 17.4083C61.8592 16.707 62.3727 15.9851 63.1326 15.2425C63.8925 14.5 64.714 13.84 65.6176 13.2212C66.5213 12.6024 67.3017 12.128 68 11.7774C67.5071 11.4268 66.5418 10.9111 65.1453 10.2098C64.1594 9.71481 63.1942 9.21979 62.2289 8.68351C61.2636 8.14724 60.5448 7.69347 60.0519 7.28095C59.559 6.80656 59.3126 6.37341 59.3126 6.02277L59.292 5.81651C59.292 5.54838 59.3331 5.32149 59.4153 5.11523C58.9429 5.404 58.5116 5.79589 58.1214 6.29091C57.6901 6.86843 57.4642 7.48721 57.4642 8.14724C57.4642 8.80727 57.6696 9.38479 58.0803 9.90044C58.45 10.3748 58.9224 10.7667 59.4563 11.1174C60.0109 11.4886 60.5654 11.798 61.161 12.0868C61.6539 12.3343 62.003 12.5406 62.2289 12.6849C62.27 12.7056 62.3111 12.7262 62.3316 12.7468C61.9619 13.0356 61.6333 13.3037 61.3663 13.5512C60.7707 14.0875 60.1546 14.8094 59.518 15.6757C58.8813 16.542 58.3473 17.5114 57.916 18.5221C57.4847 19.5327 57.2177 20.5021 57.1561 21.4509L57.3204 21.3684C57.4847 21.2653 57.7723 21.1415 58.183 20.9559C58.5938 20.7703 59.0867 20.6053 59.6617 20.4403C60.2368 20.2753 60.894 20.2134 61.6128 20.2134C61.9414 20.2134 62.2905 20.234 62.6602 20.2546C63.4201 20.3371 64.0362 20.5846 64.5291 21.0178C65.022 21.4509 65.3506 22.0285 65.4944 22.7297C65.5355 22.9154 65.5355 23.0804 65.5355 23.2454C65.5355 23.596 65.4533 23.926 65.289 24.2354C65.2479 24.3179 65.2274 24.3592 65.2274 24.4004C65.2274 24.4211 65.2479 24.4211 65.289 24.4211C65.3712 24.4211 65.4944 24.3798 65.7203 24.2973C67.1169 23.6992 67.8562 22.7091 67.9384 21.3272C67.9384 20.9765 67.8973 20.6878 67.8357 20.4196C67.6508 19.8009 67.2401 19.1821 66.6034 18.5839Z" fill="#222222"/>
<path d="M52.0913 2.61276L49.4628 5.25256L52.0913 7.89237L54.7198 5.25256L52.0913 2.61276Z" fill="#222222"/>
<path d="M54.4452 20.5847C54.2398 20.4609 54.1166 20.2546 54.055 20.0071C53.9934 19.7596 53.9523 19.3884 53.9523 18.9758V8.29163C53.6853 8.7454 53.3773 9.11666 53.0487 9.36417C52.7201 9.61168 52.3298 9.85919 51.878 10.0861L51.4878 10.313C50.6458 10.8286 50.2145 11.5711 50.2145 12.4993V19.2646C50.2145 20.4815 50.4815 21.4509 51.0154 22.1935C51.2824 22.5647 51.611 22.8329 52.0423 23.0185C52.4736 23.2041 52.8844 23.2866 53.3362 23.2866C53.6853 23.2866 54.0345 23.2248 54.3631 23.1216C54.6917 23.0185 54.9997 22.8329 55.2667 22.606C55.8829 22.0491 56.1909 21.3478 56.1909 20.5228C55.9239 20.7084 55.6364 20.7909 55.3078 20.7909C54.9381 20.7703 54.6506 20.7084 54.4452 20.5847Z" fill="#222222"/>
</svg>
