<svg width="18" height="17" viewBox="0 0 18 17" fill="none" xmlns="http://www.w3.org/2000/svg">
<path fill-rule="evenodd" clip-rule="evenodd" d="M12.9669 2.5042C13.011 2.46986 13.0613 2.44453 13.1152 2.42966C13.169 2.41479 13.2252 2.41067 13.2806 2.41753C13.336 2.4244 13.3895 2.44212 13.4381 2.46968C13.4867 2.49724 13.5293 2.5341 13.5636 2.57815L14.8786 4.26285C14.9479 4.35179 14.9791 4.46462 14.9652 4.57652C14.9513 4.68842 14.8936 4.79023 14.8046 4.85955C14.7157 4.92888 14.6029 4.96003 14.491 4.94616C14.3791 4.93229 14.2773 4.87454 14.2079 4.7856L12.8938 3.1009C12.8594 3.05693 12.8341 3.00661 12.8191 2.95282C12.8042 2.89903 12.8 2.84282 12.8068 2.78741C12.8136 2.732 12.8312 2.67847 12.8587 2.62987C12.8862 2.58128 12.9229 2.53858 12.9669 2.5042Z" fill="#004B40"/>
<path fill-rule="evenodd" clip-rule="evenodd" d="M14.8021 4.18726C14.7127 4.11863 14.5997 4.08832 14.488 4.10298C14.3762 4.11765 14.2749 4.17609 14.2062 4.26546L12.8913 5.98076C12.8574 6.02508 12.8325 6.07564 12.8181 6.12957C12.8037 6.18349 12.8001 6.23973 12.8074 6.29506C12.8222 6.4068 12.8808 6.50808 12.9703 6.57661C13.0598 6.64514 13.1729 6.67532 13.2846 6.66049C13.3964 6.64567 13.4977 6.58706 13.5662 6.49756L14.8803 4.78311C14.9489 4.69372 14.9792 4.58073 14.9646 4.46899C14.9499 4.35725 14.8915 4.25592 14.8021 4.18726Z" fill="#004B40"/>
<path fill-rule="evenodd" clip-rule="evenodd" d="M3.02875 7.92461C3.02875 6.91016 3.43174 5.93725 4.14906 5.21993C4.86639 4.5026 5.83929 4.09961 6.85375 4.09961H14.0787C14.1915 4.09961 14.2996 4.14439 14.3793 4.22409C14.459 4.30379 14.5037 4.41189 14.5037 4.52461C14.5037 4.63733 14.459 4.74543 14.3793 4.82513C14.2996 4.90483 14.1915 4.94961 14.0787 4.94961H6.85375C6.06473 4.94961 5.30803 5.26305 4.75011 5.82097C4.19218 6.37889 3.87875 7.13559 3.87875 7.92461V9.06106C3.87875 9.17378 3.83397 9.28188 3.75427 9.36158C3.67457 9.44128 3.56646 9.48606 3.45375 9.48606C3.34103 9.48606 3.23293 9.44128 3.15323 9.36158C3.07352 9.28188 3.02875 9.17378 3.02875 9.06106V7.92461ZM5.02965 14.496C4.98562 14.5303 4.93526 14.5556 4.88143 14.5705C4.82761 14.5854 4.77139 14.5895 4.71597 14.5826C4.66056 14.5758 4.60704 14.558 4.55848 14.5305C4.50992 14.5029 4.46726 14.4661 4.43295 14.422L3.11885 12.7373C3.05334 12.6482 3.02516 12.5371 3.04027 12.4275C3.05539 12.3179 3.11262 12.2186 3.1998 12.1506C3.28699 12.0825 3.39726 12.0511 3.50721 12.0631C3.61716 12.075 3.71812 12.1294 3.78865 12.2146L5.1036 13.8993C5.13794 13.9433 5.16327 13.9936 5.17814 14.0475C5.19302 14.1013 5.19714 14.1575 5.19027 14.2129C5.1834 14.2683 5.16568 14.3219 5.13812 14.3704C5.11056 14.419 5.0737 14.4616 5.02965 14.496Z" fill="#004B40"/>
<path fill-rule="evenodd" clip-rule="evenodd" d="M3.1945 12.8129C3.23878 12.847 3.28937 12.8721 3.34335 12.8866C3.39733 12.9011 3.45364 12.9049 3.50907 12.8976C3.5645 12.8903 3.61795 12.8722 3.66636 12.8443C3.71477 12.8163 3.7572 12.7791 3.7912 12.7347L5.1053 11.0194C5.14182 10.9754 5.16908 10.9245 5.18546 10.8697C5.20183 10.8149 5.20697 10.7573 5.20058 10.7005C5.19419 10.6437 5.17639 10.5887 5.14825 10.5389C5.12012 10.4891 5.08222 10.4455 5.03684 10.4107C4.99145 10.3759 4.93951 10.3506 4.88412 10.3364C4.82873 10.3221 4.77104 10.3192 4.71449 10.3278C4.65795 10.3364 4.60372 10.3563 4.55505 10.3863C4.50638 10.4164 4.46427 10.4559 4.43125 10.5026L3.1163 12.2171C3.08236 12.2614 3.05749 12.3119 3.04309 12.3659C3.0287 12.4198 3.02507 12.476 3.03241 12.5314C3.03975 12.5867 3.05792 12.64 3.08587 12.6883C3.11383 12.7366 3.15018 12.779 3.1945 12.8129Z" fill="#004B40"/>
<path fill-rule="evenodd" clip-rule="evenodd" d="M14.9687 9.07561C14.9687 10.0901 14.5657 11.063 13.8484 11.7803C13.1311 12.4976 12.1582 12.9006 11.1437 12.9006H3.9187C3.80598 12.9006 3.69788 12.8558 3.61818 12.7761C3.53847 12.6964 3.4937 12.5883 3.4937 12.4756C3.4937 12.3629 3.53847 12.2548 3.61818 12.1751C3.69788 12.0954 3.80598 12.0506 3.9187 12.0506H11.1437C11.5344 12.0506 11.9212 11.9737 12.2822 11.8242C12.6431 11.6746 12.9711 11.4555 13.2473 11.1793C13.5236 10.903 13.7427 10.575 13.8922 10.2141C14.0417 9.85315 14.1187 9.46629 14.1187 9.07561V7.93916C14.1187 7.82644 14.1635 7.71834 14.2432 7.63864C14.3229 7.55894 14.431 7.51416 14.5437 7.51416C14.6564 7.51416 14.7645 7.55894 14.8442 7.63864C14.9239 7.71834 14.9687 7.82644 14.9687 7.93916V9.07561Z" fill="#004B40"/>
</svg>
