<svg width="17" height="17" viewBox="0 0 17 17" fill="none" xmlns="http://www.w3.org/2000/svg">
<g clip-path="url(#clip0_311_1002)">
<path d="M8.5 0.885498C12.7054 0.885498 16.1146 4.29471 16.1146 8.50008C16.1146 12.7055 12.7054 16.1147 8.5 16.1147C7.91775 16.1147 7.35108 16.0495 6.80567 15.9255C6.73762 15.9101 6.67329 15.8814 6.61633 15.8411C6.55938 15.8008 6.51092 15.7497 6.47372 15.6906C6.43653 15.6316 6.41132 15.5658 6.39955 15.497C6.38778 15.4283 6.38966 15.3579 6.40511 15.2898C6.42055 15.2218 6.44924 15.1574 6.48954 15.1005C6.52985 15.0435 6.58098 14.9951 6.64001 14.9579C6.69904 14.9207 6.76482 14.8955 6.8336 14.8837C6.90237 14.8719 6.97279 14.8738 7.04083 14.8892C8.00018 15.1073 8.99631 15.1065 9.9553 14.8869C10.9143 14.6673 11.8115 14.2346 12.5804 13.6208C13.3493 13.007 13.9701 12.228 14.3967 11.3415C14.8234 10.4551 15.0449 9.48389 15.0449 8.50008C15.0449 7.51627 14.8234 6.5451 14.3967 5.65862C13.9701 4.77214 13.3493 3.99312 12.5804 3.37936C11.8115 2.76561 10.9143 2.33288 9.9553 2.11329C8.99631 1.89371 8.00018 1.89289 7.04083 2.11091C6.90341 2.1421 6.75923 2.11742 6.64001 2.0423C6.52079 1.96718 6.43629 1.84777 6.40511 1.71035C6.37392 1.57293 6.3986 1.42875 6.47372 1.30953C6.54884 1.19031 6.66825 1.10581 6.80567 1.07462C7.35108 0.950665 7.91775 0.885498 8.5 0.885498ZM2.2185 11.8193C2.33771 11.7443 2.48183 11.7197 2.61917 11.7509C2.75651 11.7821 2.87584 11.8666 2.95092 11.9858C3.47585 12.8192 4.18093 13.5242 5.01429 14.0492C5.07336 14.0864 5.12452 14.1349 5.16485 14.1918C5.20519 14.2488 5.2339 14.3132 5.24936 14.3813C5.26481 14.4493 5.26671 14.5198 5.25494 14.5886C5.24317 14.6574 5.21796 14.7232 5.18075 14.7823C5.14354 14.8414 5.09507 14.8925 5.03809 14.9329C4.98111 14.9732 4.91674 15.0019 4.84866 15.0174C4.71118 15.0486 4.56692 15.0239 4.44763 14.9487C3.48008 14.339 2.66149 13.5202 2.05204 12.5525C2.01479 12.4934 1.98954 12.4276 1.97775 12.3588C1.96595 12.2899 1.96784 12.2195 1.9833 12.1514C1.99876 12.0833 2.02749 12.0189 2.06785 11.9619C2.10821 11.905 2.1594 11.8565 2.2185 11.8193ZM2.11083 7.04091C2.14202 6.90349 2.11734 6.75931 2.04222 6.64009C1.9671 6.52087 1.84769 6.43637 1.71027 6.40519C1.57285 6.374 1.42867 6.39868 1.30945 6.4738C1.19023 6.54892 1.10573 6.66833 1.07454 6.80575C0.950585 7.35116 0.885418 7.91783 0.885418 8.50008C0.885418 9.08233 0.950585 9.649 1.07454 10.1951C1.10582 10.3325 1.19041 10.4519 1.3097 10.527C1.42899 10.602 1.57321 10.6266 1.71063 10.5953C1.84805 10.5641 1.96741 10.4795 2.04247 10.3602C2.11752 10.2409 2.14211 10.0967 2.11083 9.95925C2.00223 9.48047 1.94758 8.99103 1.94792 8.50008C1.94792 7.99787 2.00458 7.50983 2.11083 7.04091ZM5.18075 2.21858C5.25576 2.33779 5.28037 2.48191 5.24915 2.61925C5.21794 2.75659 5.13346 2.87592 5.01429 2.951C4.18087 3.47615 3.47578 4.18148 2.95092 5.01508C2.87577 5.13437 2.75632 5.21893 2.61883 5.25015C2.48134 5.28136 2.33709 5.25668 2.21779 5.18154C2.0985 5.1064 2.01395 4.98694 1.98273 4.84945C1.95151 4.71196 1.97619 4.56771 2.05133 4.44841C2.66117 3.48052 3.48026 2.66167 4.44833 2.05212C4.50739 2.01487 4.57321 1.98962 4.64203 1.97783C4.71084 1.96603 4.78131 1.96792 4.8494 1.98338C4.91749 1.99884 4.98187 2.02757 5.03884 2.06793C5.09582 2.10829 5.14358 2.15948 5.18075 2.21858Z" fill="#004B40"/>
<path fill-rule="evenodd" clip-rule="evenodd" d="M5.84375 6.52577C5.84375 5.51782 6.90342 4.76202 7.84479 5.31807L11.1881 7.29219C12.0898 7.82486 12.0898 9.17494 11.1881 9.70761L7.84479 11.681C6.90342 12.2371 5.84375 11.4813 5.84375 10.4733V6.52577ZM7.055 6.23677C7.00743 6.26807 6.96874 6.31111 6.94268 6.36174C6.91662 6.41237 6.90407 6.46887 6.90625 6.52577V10.4733C6.90625 10.6143 6.97425 10.7127 7.055 10.763C7.13292 10.8112 7.21933 10.8169 7.30433 10.7666L10.6477 8.79244C10.6969 8.76163 10.7371 8.71834 10.7643 8.66696C10.7914 8.61558 10.8044 8.55795 10.8021 8.4999C10.8046 8.44173 10.7916 8.38395 10.7644 8.33244C10.7373 8.28092 10.697 8.23752 10.6477 8.20665L7.30433 6.23323C7.26681 6.20949 7.22318 6.19719 7.17879 6.19782C7.13439 6.19845 7.09113 6.21198 7.05429 6.23677" fill="#004B40"/>
</g>
<defs>
<clipPath id="clip0_311_1002">
<rect width="17" height="17" fill="white"/>
</clipPath>
</defs>
</svg>
